<svg class="svg-icon" style="width: 1em; height: 1em;vertical-align: middle;fill: currentColor;overflow: hidden;" viewBox="0 0 1024 1024" version="1.1" xmlns="http://www.w3.org/2000/svg"><path d="M397.932 511.992h-39.92a215.44 215.44 0 0 0-132.492 45.284c-51.188 39.596-84.176 101.62-84.176 171.388v138.292H614.6v-138.292c0-119.66-97.016-216.672-216.668-216.672z" fill="#E8E6F4" /><path d="M397.932 511.992h-39.92a215.44 215.44 0 0 0-132.492 45.284 215.444 215.444 0 0 0-44.744 131.788v138.292H614.6v-98.692c0-119.66-97.016-216.672-216.668-216.672z" fill="#8D386D" /><path d="M377.944 157.032a176.216 176.216 0 0 0-111.152 39.216c-40.464 32.5-66.3 82.388-66.3 138.288 0 97.988 79.464 177.452 177.452 177.452 55.956 0 105.844-25.892 138.4-66.3a176.98 176.98 0 0 0 39.108-111.152c-0.004-98.04-79.468-177.504-177.508-177.504z" fill="#E8E6F4" /><path d="M377.944 157.032a176.216 176.216 0 0 0-111.152 39.216c-24.54 30.388-39.216 69.064-39.216 111.208 0 97.988 79.464 177.452 177.452 177.452 42.144 0 80.872-14.732 111.316-39.216a176.98 176.98 0 0 0 39.108-111.152c-0.004-98.044-79.468-177.508-177.508-177.508z" fill="#FFDDBE" /><path d="M533.944 249.98c-30.008-55.36-88.564-92.952-156.004-92.952a176.328 176.328 0 0 0-111.208 39.272 177.596 177.596 0 0 0-55.74 77.948l2.004 2.816c48.48 0 91.38-23.78 117.708-60.288a3.868 3.868 0 0 0 0.432-0.54l-11.756-22.316a178.908 178.908 0 0 0 14.732 20.096c32.556 38.512 81.144 63.052 135.58 63.052h76.16a174.624 174.624 0 0 0-11.908-27.088z" fill="#E8E6F4" /><path d="M377.944 157.032a176.328 176.328 0 0 0-111.208 39.272 176.908 176.908 0 0 0-28.656 50.864l2.004 2.816c33.584 0 65.436-13.056 90.624-33.204l3.412-2.764a158.956 158.956 0 0 0 26.108-28.276c32.556 39.216 81.576 64.244 136.556 64.244h37.16c-30.008-55.36-88.564-92.952-156-92.952z" fill="#FCC800" /><path d="M318.808 512c0 32.672 26.488 59.16 59.16 59.16s59.16-26.488 59.16-59.16h-118.32z" fill="#FFDDBE" /><path d="M845.968 442.896c-2.136 0-4.216 0.22-6.252 0.572-7.088-22.936-28.456-39.6-53.72-39.6-18.384 0-34.656 8.864-44.912 22.508 1.628-5.396 2.528-11.108 2.528-17.036 0-32.792-26.584-59.376-59.376-59.376s-59.376 26.584-59.376 59.376c0 10.044 2.516 19.496 6.92 27.792-15.416-7.252-34.356-4.552-47.096 8.188-16.24 16.24-15.084 41.492 0 58.812 12.1 13.896 34.312 12.18 34.312 12.18l112.328-0.108v0.108h114.648a36.708 36.708 0 1 0-0.004-73.416z" fill="#E8E6F4" /><path d="M455.496 507.348c65.924-29.688 111.956-95.964 111.956-172.828 0-104.48-85-189.48-189.48-189.48S188.488 230.04 188.488 334.52c0 76.864 46.032 143.14 111.956 172.828-98.32 25.584-171.116 115.108-171.116 221.324v150.292h497.284v-150.292c-0.004-106.216-72.8-195.74-171.116-221.324zM377.968 169.04c66.444 0 123.832 39.384 150.14 96.016h-58.432a165.196 165.196 0 0 1-145.672-86.932 164.632 164.632 0 0 1 53.964-9.084zM301.88 187.644a189.868 189.868 0 0 0 16.296 25.792 133.544 133.544 0 0 1-89.94 50.72A166.508 166.508 0 0 1 301.88 187.644zM212.488 334.52c0-15.832 2.28-31.136 6.452-45.644A157.508 157.508 0 0 0 334.064 232a189.2 189.2 0 0 0 135.612 57.052h67.368a164.856 164.856 0 0 1 6.404 45.464c0 91.248-74.236 165.484-165.48 165.484-91.248 0-165.48-74.232-165.48-165.48z m210.62 191.084c-5.856 19.388-23.868 33.556-45.14 33.556-21.276 0-39.288-14.168-45.144-33.556a205.828 205.828 0 0 1 25.172-1.604h39.944c8.528 0 16.912 0.588 25.168 1.604z m179.5 329.356h-94.32v-224.64h-24v224.64H305.236v-103.864h-24v103.864h-9.588v-224.64h-24v224.64h-94.32v-126.292c0-96.032 66.5-176.788 155.856-198.744 7.98 30.572 35.748 53.232 68.784 53.232s60.804-22.66 68.784-53.232c89.36 21.952 155.856 102.708 155.856 198.744v126.292z" fill="#44294F" /><path d="M333.092 327.172h-28.6a16.088 16.088 0 1 0 28.6 0zM451.448 327.172h-28.6a16.088 16.088 0 1 0 28.6 0zM377.968 385.68a59.772 59.772 0 0 0-51.568 29.752l13.848 8.016a43.724 43.724 0 0 1 37.72-21.764c15.492 0 29.944 8.34 37.724 21.768l13.844-8.02a59.768 59.768 0 0 0-51.568-29.752zM847.696 430.928c-11.124-23.708-34.86-39.06-61.704-39.06-11.04 0-21.632 2.6-31.084 7.46-4.884-34.636-34.716-61.364-70.676-61.364-39.356 0-71.376 32.02-71.376 71.376 0 3.972 0.336 7.94 1 11.852a53.624 53.624 0 0 0-37.66 15.644c-20.12 20.124-20.36 52.444-0.564 75.18 12.82 14.72 32.5 16.384 40.732 16.38 1.344 0 2.38-0.044 3.036-0.084l110.324-0.104c0.524 0.072 1.06 0.104 1.6 0.104h114.648c26.856 0 48.708-21.848 48.708-48.708-0.008-26.28-20.924-47.764-46.984-48.676z m-1.728 73.38H732.92a11.872 11.872 0 0 0-1.604-0.108h-0.012l-112.328 0.108c-0.26 0-0.588 0.012-0.848 0.032-4.552 0.308-17.844-0.564-24.4-8.092-11.6-13.324-11.836-31.172-0.568-42.448a29.572 29.572 0 0 1 20.916-8.624c4.268 0 8.568 0.916 12.588 2.808a11.992 11.992 0 0 0 15.704-16.488 46.78 46.78 0 0 1-5.516-22.16c0-26.124 21.252-47.376 47.376-47.376s47.376 21.252 47.376 47.376c0 4.576-0.676 9.14-2.016 13.568a12 12 0 0 0 21.08 10.676c8.464-11.26 21.34-17.716 35.324-17.716a44 44 0 0 1 42.252 31.144 11.984 11.984 0 0 0 13.504 8.28 25.032 25.032 0 0 1 4.212-0.396c13.624 0 24.708 11.084 24.708 24.708s-11.08 24.708-24.7 24.708zM778.748 561.668l-12.904-25.76-12.868 25.78c-4.624 9.26 1.276 20.716 11.588 21.556a15.46 15.46 0 0 0 2.6 0c10.328-0.836 16.22-12.312 11.584-21.576zM701.048 561.668l-12.904-25.76-12.868 25.78c-4.62 9.26 1.276 20.716 11.588 21.556a15.652 15.652 0 0 0 2.6 0c10.328-0.836 16.22-12.312 11.584-21.576zM778.748 661.06l-12.904-25.76-12.868 25.78c-4.624 9.26 1.276 20.716 11.588 21.556a15.46 15.46 0 0 0 2.6 0c10.328-0.836 16.22-12.312 11.584-21.576zM701.048 661.06l-12.904-25.76-12.868 25.78c-4.62 9.26 1.276 20.716 11.588 21.556a15.652 15.652 0 0 0 2.6 0c10.328-0.836 16.22-12.312 11.584-21.576zM739.676 605.624l-12.904-25.76-12.868 25.78c-4.624 9.26 1.276 20.712 11.588 21.556a15.46 15.46 0 0 0 2.6 0c10.328-0.836 16.22-12.316 11.584-21.576zM662.368 605.624l-12.904-25.76-12.868 25.78c-4.624 9.26 1.276 20.712 11.588 21.556a15.46 15.46 0 0 0 2.6 0c10.328-0.836 16.224-12.316 11.584-21.576zM818.992 605.624l-12.904-25.76-12.868 25.78c-4.624 9.26 1.276 20.712 11.588 21.556a15.46 15.46 0 0 0 2.6 0c10.328-0.836 16.224-12.316 11.584-21.576zM281.236 663.08h24v50.996h-24z" fill="#44294F" /></svg>